
<svg xmlns="http://www.w3.org/2000/svg" version="1.1" xmlns:xlink="http://www.w3.org/1999/xlink" preserveAspectRatio="none" x="0px" y="0px" width="128px" height="128px" viewBox="0 0 128 128">
<defs>
<g id="logo_0_Layer0_0_FILL">
<path fill="#00CC33" stroke="none" d="
M 16 16
L 16 112 112 112 112 16 16 16 Z"/>
</g>

<g id="logo_0_Layer0_1_FILL">
<path fill="#FFCC33" stroke="none" d="
M 0 0
L 0 32 16 64 64 16 32 0 0 0 Z"/>
</g>

<g id="logo_0_Layer0_2_FILL">
<path fill="#FF3366" stroke="none" d="
M 128 32
L 128 0 96 0 64 16 112 64 128 32 Z"/>
</g>

<g id="logo_0_Layer0_3_FILL">
<path fill="#3333FF" stroke="none" d="
M 16 64
L 0 96 0 128 32 128 64 112 16 64 Z"/>
</g>

<g id="logo_0_Layer0_4_FILL">
<path fill="#00CCFF" stroke="none" d="
M 128 96
L 112 64 64 112 96 128 128 128 128 96 Z"/>
</g>

<g id="Layer0_1_MEMBER_0_FILL">
<path fill="#FCFCFC" stroke="none" d="
M 48.7 16
Q 45.95 14.1 42.75 14
L 21.6 14
Q 20 14 18.5 14.45 16.9 14.9 15.6 15.85 13.95 16.95 12.65 18.8 11.45 20.7 11.1 22.75
L 8 42.45
Q 7.85 44.1 9 45.5 10.15 46.85 11.85 47
L 13.75 46.75
Q 14.7 46.45 15.35 45.7
L 23 38 41 38 48.8 45.85
Q 49.5 46.45 50.05 46.7
L 52.7 46.95
Q 54.1 46.55 54.95 45.5 55.6 44.8 55.9 43.7 56.05 42.55 55.8 41.6
L 52.4 21
Q 51.35 18 48.7 16
M 44 23
Q 44 23.8 43.4 24.4 42.85 25 42 25 41.1 25 40.5 24.4 40 23.9 40 23 40 22.1 40.5 21.55 41.2 21 42 21 42.75 21 43.4 21.55 44 22.25 44 23
M 48 27
Q 48 27.8 47.4 28.4 46.85 29 46 29 45.1 29 44.5 28.4 44 27.9 44 27 44 26.1 44.5 25.55 45.2 25 46 25 46.75 25 47.4 25.55 48 26.25 48 27
M 42 29
Q 42.75 29 43.4 29.55 44 30.25 44 31 44 31.75 43.4 32.45 42.75 33 42 33 41.2 33 40.5 32.45 40 31.9 40 31 40 30.1 40.5 29.55 41.2 29 42 29
M 20 33
L 20 29 16 29 16 25 20 25 20 21 24 21 24 25 28 25 28 29 24 29 24 33 20 33
M 40 27
Q 40 27.8 39.4 28.4 38.85 29 38 29 37.1 29 36.5 28.4 36 27.9 36 27 36 26.1 36.5 25.55 37.2 25 38 25 38.75 25 39.4 25.55 40 26.25 40 27 Z"/>
</g>
</defs>

<g transform="matrix( 1, 0, 0, 1, 0,0) ">
<g transform="matrix( 1, 0, 0, 1, 0,0) ">
<use xlink:href="#logo_0_Layer0_0_FILL"/>
</g>

<g transform="matrix( 1, 0, 0, 1, 0,0) ">
<use xlink:href="#logo_0_Layer0_1_FILL"/>
</g>

<g transform="matrix( 1, 0, 0, 1, 0,0) ">
<use xlink:href="#logo_0_Layer0_2_FILL"/>
</g>

<g transform="matrix( 1, 0, 0, 1, 0,0) ">
<use xlink:href="#logo_0_Layer0_3_FILL"/>
</g>

<g transform="matrix( 1, 0, 0, 1, 0,0) ">
<use xlink:href="#logo_0_Layer0_4_FILL"/>
</g>
</g>

<g transform="matrix( 1, 0, 0, 1, 32.05,33.5) ">
<use xlink:href="#Layer0_1_MEMBER_0_FILL"/>
</g>
</svg>
